<svg width="24" height="24" viewBox="0 0 24 24" fill="none" xmlns="http://www.w3.org/2000/svg">
<rect width="24" height="24" rx="3" fill="#2874F0"/>
<path fill-rule="evenodd" clip-rule="evenodd" d="M6.347 17.653C7.82895 19.1786 9.87327 20.0274 12 20C14.1267 20.0274 16.171 19.1786 17.653 17.653C19.1786 16.1711 20.0274 14.1267 20 12C20.0274 9.87328 19.1786 7.82895 17.653 6.347C16.1713 4.82108 14.1268 3.97227 12 4C9.87321 3.97227 7.82875 4.82108 6.347 6.347C4.82108 7.82875 3.97226 9.87321 4 12C3.97226 14.1268 4.82108 16.1713 6.347 17.653ZM14.891 16.018L12 13.127V13.128L9.109 16.019L7.982 14.892L10.873 12L7.982 9.108L9.108 7.982L12 10.873L14.892 7.982L16.019 9.108L13.127 12L16.018 14.891L14.891 16.018Z" fill="white"/>
</svg>
